PathFileType	4	(X/Y/Z)	pose_F01_0-91.trc
DataRate	CameraRate	NumFrames	NumMarkers	Units	OrigDataRate	OrigDataStartFrame	OrigNumFrames
30	30	8	21	m	30	34	91
Frame#	Time	CHip			RHip			RKnee			RAnkle			RBigToe			RSmallToe			RHeel			LHip			LKnee			LAnkle			LBigToe			LSmallToe			LHeel			Neck			Nose			RShoulder			RElbow			RWrist			LShoulder			LElbow			LWrist			
		X1	Y1	Z1	X2	Y2	Z2	X3	Y3	Z3	X4	Y4	Z4	X5	Y5	Z5	X6	Y6	Z6	X7	Y7	Z7	X8	Y8	Z8	X9	Y9	Z9	X10	Y10	Z10	X11	Y11	Z11	X12	Y12	Z12	X13	Y13	Z13	X14	Y14	Z14	X15	Y15	Z15	X16	Y16	Z16	X17	Y17	Z17	X18	Y18	Z18	X19	Y19	Z19	X20	Y20	Z20	X21	Y21	Z21	
34	1.1333333333333333	-0.27641845402803694	1.8230980562083856	-0.5627358815307021	-0.2796501105309093	1.819008372717841	-0.5022472809193284	-0.2767980766946396	1.6847784636362875	-0.47253527669774065	-0.2657023284730457	1.5428722882856032	-0.4143398864473925	-0.22205363039184586	1.513524293923298	-0.3889430064927845	-0.2351963763946585	1.5160982381110117	-0.36916967707832665	-0.2724575905087626	1.5246360692677055	-0.4190236272579992	-0.27341925147949436	1.8253335126538208	-0.6172377648106554	-0.2921754006158408	1.6892932266881187	-0.6067872661557976	-0.3414443312303327	1.5775473593293865	-0.5831729906877106	-0.45020322616867614	1.5288441512648838	-0.9856717432875501	-0.3028174340706399	1.5512598011683938	-0.5899403905133028	-0.35835001243436987	1.5690580424938385	-0.5788749617948774	-0.2726793621675844	1.9797080322108798	-0.57638655202175	-0.2335905873708154	2.0579726769423594	-0.6315367547324161	-0.2758342088919289	1.9730916794677724	-0.4908168578690132	-0.2709589501895561	1.8807759607579815	-0.4533571254332637	-0.2368815464668584	1.797916740476925	-0.4355442522392282	-0.2688105591519873	1.9879873122269862	-0.6558689742882743	-0.8435826565703257	1.8867588306022676	-0.18614720284830044	-1.171657591527128	1.8170017440363722	0.21676404868381552
35	1.1666666666666667	-0.2827045004469816	1.8222669496936756	-0.5732354256816216	-0.2860772251615704	1.8172702089962212	-0.5130249644953908	-0.27879458376686056	1.6832407024696645	-0.4792129994669228	-0.26924466478613124	1.5468442954954296	-0.4206556306586775	-0.2321022708312779	1.5187875878639359	-0.3877433565904742	-0.24233170112970528	1.5195885027206821	-0.3661960675410715	-0.2809936573527222	1.5271167297580723	-0.4225130813380461	-0.27826039940212693	1.824352165746838	-0.6331598008386751	-0.2969777765260682	1.6886969768350815	-0.6103898812676778	-0.3414443312303327	1.5775473593293865	-0.5831729906877106	-0.45020322616867614	1.5288441512648838	-0.9856717432875501	-0.3028174340706399	1.5512598011683938	-0.5899403905133028	-0.35835001243436987	1.5690580424938385	-0.5788749617948774	-0.2746192606096786	1.9800364047946752	-0.591110160329403	-0.23639590300978433	2.054376695836101	-0.639887527717707	-0.28106710584675737	1.9748011819868507	-0.5071004661314588	-0.27147146116165616	1.8814216021007684	-0.4711726843289015	-0.23963612782847574	1.8030986912558735	-0.45538604020083623	-0.27262252303485346	1.9873847864793208	-0.6683713589808451	-0.7055048322197092	1.8971205692883188	-0.33764893246841726	-1.1166272463106175	1.811947084076497	0.13071585412625467
36	1.2	-0.2876259243994805	1.823870053088491	-0.5809327405606162	-0.29201414798567227	1.8214580012559756	-0.5157817199703714	-0.2809039360935716	1.688615930384824	-0.48676165145574274	-0.28024588826366387	1.5474505806340857	-0.422334246310758	-0.2374779664622937	1.526053374658429	-0.4021515746955226	-0.249925942418231	1.5253342593190276	-0.3778314845647261	-0.28952972419668177	1.5295973902484392	-0.4260025354180931	-0.2792663158660198	1.8282154250674387	-0.6367598664919605	-0.2985528357800609	1.6909615330206764	-0.6176805636557816	-0.3414443312303327	1.5775473593293865	-0.5831729906877106	-0.45020322616867614	1.5288441512648838	-0.9856717432875501	-0.3028174340706399	1.5512598011683938	-0.5899403905133028	-0.35835001243436987	1.5690580424938385	-0.5788749617948774	-0.28052413001924886	1.9828830487109337	-0.601951196927072	-0.24041761622843894	2.0534222369248325	-0.644045908351441	-0.2861410924199261	1.9777529712592088	-0.5149999480212957	-0.277595898771198	1.887557019661315	-0.4914763139556635	-0.24698760029821273	1.8125682317592615	-0.4799496739394475	-0.276990389840863	1.9901628182506994	-0.6836111567066048	-0.5674270078690925	1.9074823079743701	-0.48915066208853414	-1.0606953988096581	1.8048006083914416	0.04455364401745951
37	1.2333333333333334	-0.2906534200555137	1.8292128027398913	-0.5828003507074868	-0.29616033923151436	1.8253571581538586	-0.5204111684611923	-0.2831952253401588	1.6958197628386913	-0.49856025734590204	-0.2941680002940683	1.5519894735717845	-0.42803649028668345	-0.2571902675605484	1.531875036562293	-0.41848550754723063	-0.26648680737729824	1.5357099049663292	-0.3940493186428499	-0.2980657910406413	1.532078050738806	-0.42949198949814005	-0.28209285250927146	1.832050301848214	-0.646577388604076	-0.298272303920282	1.6960042036711895	-0.6184822947809706	-0.3414443312303327	1.5775473593293865	-0.5831729906877106	-0.45020322616867614	1.5288441512648838	-0.9856717432875501	-0.3028174340706399	1.5512598011683938	-0.5899403905133028	-0.35835001243436987	1.5690580424938385	-0.5788749617948774	-0.28339236195257966	1.9854429292791016	-0.6115876050300538	-0.24329207021011515	2.051086672783089	-0.6527336371946465	-0.2922158933755272	1.9794844516952197	-0.5258866947826806	-0.2862177877528596	1.889528341409116	-0.49486654047072764	-0.255457489073696	1.8133885373088963	-0.5013073201649233	-0.27677262347635856	1.993214140914287	-0.6922161579247098	-0.42934918351847584	1.9178440466604214	-0.6406523917086511	-1.003191066747228	1.801306900935003	-0.028553491181878537
38	1.2666666666666666	-0.29181852147034126	1.8270960348731196	-0.5857053737638714	-0.2982362115877144	1.8253116424496783	-0.5269085632151459	-0.28909134947282694	1.6903240240324644	-0.5006703597051049	-0.3080901123244728	1.5565283665094833	-0.4337387342626089	-0.27525758381201343	1.5340535129882031	-0.43639729401444755	-0.2862875103989139	1.5381356976553613	-0.41461305841422413	-0.30660185788460087	1.534558711229173	-0.43298144357818696	-0.28638937986830515	1.8301639038077007	-0.6505186772374637	-0.2992387855431748	1.6945018581389897	-0.6215174537922068	-0.3414443312303327	1.5775473593293865	-0.5831729906877106	-0.45020322616867614	1.5288441512648838	-0.9856717432875501	-0.3028174340706399	1.5512598011683938	-0.5899403905133028	-0.35835001243436987	1.5690580424938385	-0.5788749617948774	-0.28745722163673654	1.985664356788723	-0.6157410168269115	-0.24646236231124327	2.0500253535703648	-0.6537457221739914	-0.29428553434775956	1.9806877854304934	-0.5322032357606705	-0.2892699555620308	1.8926286676906101	-0.5049644441069399	-0.2630611416734528	1.8174621380070528	-0.5110895112009175	-0.2797616078358999	1.9899191962050344	-0.7010948733976288	-0.29127135916785934	1.9282057853464727	-0.7921541213287677	-0.94902264040725	1.7984467029151041	-0.10911384564825964
39	1.3	-0.2927431285610876	1.8269543638775934	-0.5887970994890168	-0.3013364314078608	1.8254455743976628	-0.5279613678533298	-0.29969090617610783	1.6949071752234188	-0.49892783546113245	-0.3220122243548773	1.5610672594471822	-0.43944097823853434	-0.27525758381201343	1.5340535129882031	-0.43639729401444755	-0.3018498668188108	1.5423692569996286	-0.41859491791065345	-0.31513792472856045	1.5370393717195399	-0.4364708976582339	-0.28212460356130026	1.8306368463310694	-0.6549367195752683	-0.3001823105132467	1.6939304192312674	-0.6247906516469354	-0.3414443312303327	1.5775473593293865	-0.5831729906877106	-0.45020322616867614	1.5288441512648838	-0.9856717432875501	-0.3028174340706399	1.5512598011683938	-0.5899403905133028	-0.35835001243436987	1.5690580424938385	-0.5788749617948774	-0.2957395293381724	1.9859804299495585	-0.6154402917908132	-0.25168970632700605	2.048582771056177	-0.6519165328572625	-0.29857050881673514	1.9811248043330334	-0.5366167243433708	-0.2933419691355649	1.8982320650660507	-0.5098144035528669	-0.2731752201831372	1.8230906176400359	-0.509434375077881	-0.2838863076518018	1.9888827325254195	-0.7049889265260427	-0.29155490103272713	1.922340472968618	-0.7830578114599052	-0.9319917019222979	1.79039575720755	-0.13270819057502786
40	1.3333333333333333	-0.294774943267017	1.821856118617856	-0.5863054500743835	-0.3041556681883502	1.8190638799229628	-0.5284279949671236	-0.3094099066957234	1.696203489776153	-0.5109745242561055	-0.33593433638528175	1.565606152384881	-0.4451432222144598	-0.27525758381201343	1.5340535129882031	-0.43639729401444755	-0.31741222323870777	1.5466028163438958	-0.4225767774070828	-0.32367399157251997	1.5395200322099067	-0.43996035173828085	-0.28192535595632195	1.8242065797787856	-0.6544803033042806	-0.3026190766507828	1.6929200620319909	-0.6224031805901749	-0.3414443312303327	1.5775473593293865	-0.5831729906877106	-0.45020322616867614	1.5288441512648838	-0.9856717432875501	-0.3028174340706399	1.5512598011683938	-0.5899403905133028	-0.35835001243436987	1.5690580424938385	-0.5788749617948774	-0.2989434479753079	1.9850521299182327	-0.6163425277098967	-0.2590172808335157	2.0474618804084272	-0.6485048507717704	-0.30062258382043344	1.981031781575978	-0.5346083117442468	-0.2934333026762664	1.89585577216823	-0.5094970633754186	-0.27495770204889164	1.8212732317553624	-0.5070358948020082	-0.29062115773330954	1.9889478766741007	-0.6989244837894717	-0.29077883553101574	1.9153513299726324	-0.759487770989598	-0.2804686652561539	1.8486043494774114	-0.7515336166524315
41	1.3666666666666667	-0.30000992314990954	1.8246878520219727	-0.5903632663020406	-0.3067057930572588	1.821900844018196	-0.5315087457616358	-0.32494829571307454	1.7009813812658778	-0.5038783655469417	-0.3498564484156862	1.5701450453225798	-0.45084546619038524	-0.27525758381201343	1.5340535129882031	-0.43639729401444755	-0.33297457965860466	1.5508363756881631	-0.42655863690351215	-0.33221005841647955	1.5420006927002736	-0.4434498058183278	-0.2859538507575809	1.8276071438806525	-0.6554972517853653	-0.3044768980544324	1.696513693933695	-0.62480437295179	-0.3414443312303327	1.5775473593293865	-0.5831729906877106	-0.45020322616867614	1.5288441512648838	-0.9856717432875501	-0.3028174340706399	1.5512598011683938	-0.5899403905133028	-0.35835001243436987	1.5690580424938385	-0.5788749617948774	-0.30196827139411375	1.9836955244110344	-0.6169851523558152	-0.26006521524439913	2.046264626221064	-0.650869075114156	-0.30869472715135243	1.9809211987662132	-0.5344375074443745	-0.29666437802551915	1.897051301933641	-0.5107946155079592	-0.2745988542008137	1.8246711848857304	-0.5039822958403453	-0.2958760815567435	1.9860936814686834	-0.6968910496379467	-1.0404000670114668	1.8344135695506247	0.0036928295517668075	-0.2782228488345723	1.8342701406338673	-0.7405743896935122
